<?xml version="1.0" encoding="UTF-8" standalone="no"?>
<!-- Created with Inkscape (http://www.inkscape.org/) -->

<svg
   version="1.1"
   id="svg2"
   xml:space="preserve"
   width="944.88013"
   height="168.86034"
   viewBox="0 0 944.88012 168.86033"
   sodipodi:docname="4bd89b023950ada66927b966efd39210.eps"
   xmlns:inkscape="http://www.inkscape.org/namespaces/inkscape"
   xmlns:sodipodi="http://sodipodi.sourceforge.net/DTD/sodipodi-0.dtd"
   xmlns="http://www.w3.org/2000/svg"
   xmlns:svg="http://www.w3.org/2000/svg"><defs
     id="defs6" /><sodipodi:namedview
     id="namedview4"
     pagecolor="#ffffff"
     bordercolor="#666666"
     borderopacity="1.0"
     inkscape:pageshadow="2"
     inkscape:pageopacity="0.0"
     inkscape:pagecheckerboard="0" /><g
     id="g8"
     inkscape:groupmode="layer"
     inkscape:label="ink_ext_XXXXXX"
     transform="matrix(1.3333333,0,0,-1.3333333,-0.18385466,170.11866)"><g
       id="g10"
       transform="scale(0.1)"><path
         d="m 1669.19,879.719 c 3.52,15.582 8.64,31.047 12.15,46.597 20.7,3.555 51.88,6.954 86.49,6.954 v 34.57 c -64.07,-1.68 -126.33,-5.07 -186.84,-5.07 12.11,-32.899 -1.76,-83.051 -12.11,-126.372 L 1473.72,474.84 c -10.43,-43.25 -24.29,-95.121 -53.67,-126.289 67.5,0 134.92,-3.524 233.6,-3.524 38.08,0 76.09,5.274 114.18,13.907 v 41.484 c -31.1,-12.027 -65.79,-17.379 -105.51,-17.379 -105.59,0 -124.61,3.551 -105.59,72.766 z m 98.64,53.551 h 8.67 c 174.72,0 238.75,-105.54 193.75,-271.602 -31.17,-122.77 -95.12,-223.16 -202.42,-261.25 v -41.484 c 140.11,39.804 264.68,148.711 309.64,320.117 5.24,22.387 8.68,43.207 10.39,63.988 v 50.121 c -8.59,109.141 -84.8,178.278 -207.53,178.278 -38.21,0 -76.14,-1.797 -112.5,-3.598 v -34.57"
         style="fill:#666669;fill-opacity:1;fill-rule:nonzero;stroke:none"
         id="path12" /><path
         d="m 2404.51,381.398 c -19.03,-6.964 -39.77,-10.347 -60.59,-10.347 -129.81,0 -129.81,138.359 -102.07,242.258 24.22,93.242 79.65,179.851 162.66,209.218 v 36.371 C 2276.5,827.73 2184.7,718.738 2151.97,592.527 2145.05,563 2139.82,535.34 2139.82,509.41 v -10.433 c 1.68,-96.84 57.03,-162.497 186.83,-162.497 27.66,0 53.6,3.391 77.86,8.547 z m 162.65,209.372 c -24.22,-93.469 -79.65,-180 -162.65,-209.372 v -36.371 c 128.04,31.172 219.72,140.161 252.61,268.282 8.64,27.66 12.03,53.601 12.03,77.781 v 15.461 c -1.68,95.32 -58.75,162.738 -188.55,162.738 -25.94,0 -51.92,-3.441 -76.09,-10.391 v -36.371 c 18.98,7.032 39.8,10.434 62.3,10.434 129.77,0 128.05,-138.32 100.35,-242.191"
         style="fill:#666669;fill-opacity:1;fill-rule:nonzero;stroke:none"
         id="path14" /><path
         d="m 3347.4,855.461 c -25.98,-29.34 -34.57,-72.691 -46.68,-112.383 -24.18,-95.277 -53.64,-195.59 -69.22,-290.738 -5.2,-36.41 -12.11,-72.621 -1.76,-103.832 H 3110.4 c 24.26,39.84 41.57,98.711 51.96,143.586 l 70.93,263.054 c 1.72,8.629 3.44,19.02 -1.79,19.02 -5.2,0 -10.39,-6.91 -13.83,-12.109 l -290.66,-420.43 -51.84,389.18 c -1.72,22.66 -1.72,43.359 -8.83,43.359 -8.51,0 -12.07,-15.508 -15.47,-27.73 L 2781.61,488.66 c -15.54,-62.262 -29.33,-114.226 -18.98,-140.152 h -96.87 l 10.39,10.426 c 43.24,41.484 77.85,167.777 100.31,254.336 l 53.71,197.269 c 5.19,22.422 6.91,32.852 -8.71,44.922 h 100.35 c 8.67,0 20.82,-1.766 20.82,-12.07 l 27.66,-346.09 c 1.75,-12.153 0,-25.946 6.87,-25.946 6.99,0 10.39,8.711 19.06,19.024 l 226.57,332.148 c 12.22,17.383 22.57,32.934 41.68,32.934 h 82.93"
         style="fill:#666669;fill-opacity:1;fill-rule:nonzero;stroke:none"
         id="path16" /><path
         d="m 3639.82,381.398 c -19.03,-6.964 -39.77,-10.347 -62.35,-10.347 -126.25,0 -126.25,138.359 -100.27,242.258 24.14,93.242 79.61,179.851 162.62,209.218 v 36.371 C 3513.49,827.73 3421.77,718.738 3389,592.527 c -8.67,-31.254 -12.15,-58.867 -12.15,-86.558 v -5.199 c 0,-96.872 56.99,-164.29 186.83,-164.29 25.9,0 51.88,3.391 76.14,8.547 z m 162.65,209.372 c -24.21,-93.469 -81.32,-180 -162.65,-209.372 v -36.371 c 126.36,31.172 218.04,140.161 252.61,268.282 6.96,27.66 10.36,55.312 12.11,81.332 v 10.269 c -1.75,95.16 -58.82,164.379 -188.63,164.379 -25.94,0 -51.91,-3.441 -76.09,-10.391 v -36.371 c 19.02,7.032 38.12,10.434 60.54,10.434 129.85,0 129.85,-138.32 102.11,-242.191"
         style="fill:#666669;fill-opacity:1;fill-rule:nonzero;stroke:none"
         id="path18" /><path
         d="m 4134.66,787.961 c 1.76,12.148 6.92,26.016 10.39,38.16 17.19,3.438 43.24,5.152 70.94,5.152 v 29.415 c -51.99,-1.75 -103.87,-5.188 -153.98,-5.188 10.35,-25.941 0,-67.539 -10.47,-103.832 l -79.5,-299.328 c -8.67,-36.371 -19.14,-76.141 -43.36,-103.789 57.15,0 110.75,-3.485 192.15,-3.485 32.89,0 63.91,3.485 95.16,12.071 v 32.847 c -25.98,-8.546 -53.75,-13.785 -86.52,-13.785 -88.29,0 -102.11,3.52 -88.29,60.59 z m 81.33,43.312 h 8.55 c 141.96,0 195.67,-86.515 159.22,-223.113 -25.93,-102.191 -77.97,-185.199 -167.77,-218.176 v -32.847 c 117.66,32.847 219.8,122.89 254.3,264.801 6.95,19.031 8.71,38.011 10.31,57.113 v 37.969 c -6.88,89.96 -69.1,147.031 -171.25,147.031 -31.09,0 -62.27,-1.68 -93.36,-3.363 v -29.415"
         style="fill:#666669;fill-opacity:1;fill-rule:nonzero;stroke:none"
         id="path20" /><path
         d="m 4601.69,379.719 h 93.6 c 48.36,0 105.39,12.109 150.47,44.922 l -32.97,-72.621 c -22.43,-1.719 -50.12,-3.469 -77.86,-3.469 h -233.51 c 24.18,27.648 38.05,67.457 46.8,103.75 l 77.77,299.41 c 10.35,36.25 22.5,77.848 10.35,103.75 h 282.03 l -13.79,-60.621 c -20.86,22.609 -64.02,29.449 -110.74,29.449 h -76.13 l -48.48,-190.351 c 62.31,0 126.33,0 190.31,5.23 -39.72,-44.957 -131.52,-44.957 -179.96,-44.957 h -22.38 l -55.51,-214.492"
         style="fill:#666669;fill-opacity:1;fill-rule:nonzero;stroke:none"
         id="path22" /><path
         d="m 5132.94,787.961 c 5.28,12.148 8.6,26.016 12.11,38.16 17.19,3.438 43.21,5.152 69.18,5.152 v 29.415 c -50.19,-1.75 -102.07,-5.188 -153.94,-5.188 12.07,-25.941 0,-67.539 -8.64,-103.832 L 4971.97,452.34 c -8.6,-36.371 -20.75,-76.141 -45.04,-103.789 57.22,0 112.58,-3.485 193.86,-3.485 32.89,0 64.03,3.485 93.44,12.071 v 32.847 c -24.26,-8.546 -53.63,-13.785 -84.76,-13.785 -88.36,0 -103.87,3.52 -88.36,60.59 z m 81.29,43.312 h 8.63 c 145.36,0 197.31,-86.515 160.86,-223.113 -27.57,-102.191 -79.57,-185.199 -169.49,-218.176 v -32.847 c 117.62,31.211 219.73,122.89 257.78,264.801 3.47,19.031 6.91,36.25 8.63,53.562 v 39.84 c -8.63,89.926 -70.94,148.711 -173.05,148.711 -31.01,0 -62.3,-1.68 -93.36,-3.363 v -29.415"
         style="fill:#666669;fill-opacity:1;fill-rule:nonzero;stroke:none"
         id="path24" /><path
         d="m 5805.99,381.398 c -19.06,-6.964 -39.96,-10.347 -60.63,-10.347 -131.56,0 -131.56,138.359 -103.86,242.258 26.05,93.242 81.4,179.851 164.49,209.218 v 36.371 C 5677.83,827.73 5586.18,718.738 5553.33,592.527 5544.7,563 5541.15,535.34 5541.15,509.41 v -12.109 c 1.75,-95.164 57.18,-160.821 186.91,-160.821 27.73,0 53.67,3.391 77.93,8.547 z m 162.54,209.372 c -24.22,-93.469 -81.29,-181.68 -162.54,-209.372 v -36.371 c 128.01,31.172 217.93,140.161 252.54,268.282 6.91,27.66 12.11,53.601 12.11,79.492 v 13.75 c -1.72,95.32 -58.79,162.738 -188.6,162.738 -27.69,0 -51.95,-3.441 -76.05,-10.391 v -36.371 c 18.94,7.032 39.65,10.434 60.55,10.434 129.72,0 129.72,-138.32 101.99,-242.191"
         style="fill:#666669;fill-opacity:1;fill-rule:nonzero;stroke:none"
         id="path26" /><path
         d="m 6190.01,345.066 -1.72,39.805 c -5.23,127.969 -8.71,323.555 -34.64,444.688 l -5.16,25.941 h 70.98 c 15.54,0 15.54,-17.34 15.54,-29.34 10.35,-124.64 24.26,-247.539 25.98,-372.031 0,-15.578 1.72,-22.578 6.87,-22.578 5.2,0 12.15,12.226 19.07,24.254 43.2,69.222 200.66,297.621 221.44,370.355 1.72,12 3.48,20.629 1.72,29.34 h 100.31 l -20.7,-24.227 C 6477.24,694.598 6373.45,535.379 6278.26,388.348 l -25.94,-43.282 h -62.31"
         style="fill:#666669;fill-opacity:1;fill-rule:nonzero;stroke:none"
         id="path28" /><path
         d="m 6823.26,381.398 c -19.03,-6.964 -39.85,-10.347 -62.31,-10.347 -129.77,0 -129.77,138.359 -100.31,242.258 22.46,93.242 79.61,179.851 162.62,209.218 v 36.371 c -129.69,-31.168 -219.77,-140.16 -254.3,-266.371 -6.99,-27.808 -10.51,-55.347 -12.23,-79.687 v -15.539 c 3.48,-95.164 60.7,-160.821 190.43,-160.821 25.9,0 51.88,3.391 76.1,8.547 z m 162.61,209.372 c -24.18,-93.469 -81.29,-180 -162.61,-209.372 v -36.371 c 126.28,31.172 218,140.161 252.57,268.282 6.96,27.66 10.43,53.601 12.15,79.492 v 13.75 c -3.47,95.32 -58.83,162.738 -188.59,162.738 -25.98,0 -51.99,-3.441 -76.13,-10.391 v -36.371 c 18.94,7.032 38,10.434 60.5,10.434 129.81,0 129.81,-138.32 102.11,-242.191"
         style="fill:#666669;fill-opacity:1;fill-rule:nonzero;stroke:none"
         id="path30" /><path
         d="m 2587.94,14.6797 c -3.51,51.8008 -12.11,103.7893 -20.74,153.9103 0,5.23 -1.76,8.711 -3.52,10.426 h 22.47 c 5.19,0 6.95,-5.196 6.95,-10.426 6.91,-39.891 12.11,-79.5002 17.34,-119.422 1.68,-5.1524 1.68,-6.8282 3.44,-6.8282 1.68,0 3.44,3.3477 5.12,6.8282 12.11,27.7383 22.46,55.43 32.97,81.371 3.43,8.672 15.54,41.555 8.59,48.477 h 36.41 c -5.24,-6.922 -3.48,-12.145 -3.48,-17.305 6.87,-36.332 12.03,-74.4102 17.23,-112.543 0,-5.1524 0,-6.8282 1.75,-6.8282 3.36,0 5.16,3.3477 6.92,6.8282 10.47,27.7383 24.18,64.102 31.09,81.371 6.99,17.34 15.59,43.281 8.71,48.477 h 36.37 c -12.19,-13.868 -24.3,-31.137 -31.17,-48.477 L 2712.47,14.6797 h -25.97 c -1.64,39.7578 -6.84,77.7695 -13.79,115.8593 0,6.91 -6.92,3.441 -8.67,0 L 2613.88,14.6797 h -25.94"
         style="fill:#215c63;fill-opacity:1;fill-rule:nonzero;stroke:none"
         id="path32" /><path
         d="m 6956.5,14.6797 c 8.59,10.3476 10.35,24.1797 13.79,36.2891 l 31.05,117.6212 h -34.49 c -5.2,0 -12.11,-1.719 -19.06,-6.879 l 10.39,18.977 h 129.76 c -6.95,-12.098 -24.26,-12.098 -34.53,-12.098 h -29.45 L 6994.47,50.9688 c -3.4,-12.1094 -6.92,-25.9415 -3.4,-36.2891 h -34.57"
         style="fill:#215c63;fill-opacity:1;fill-rule:nonzero;stroke:none"
         id="path34" /><path
         d="m 6818.1,182.488 c -12.15,-1.8 -26.02,-1.8 -39.88,-1.8 3.51,-8.547 0,-22.5 -3.4,-34.598 l -24.26,-95.1212 c -5.2,-12.1485 -6.91,-24.1797 -17.23,-36.2891 h 36.29 c -3.44,10.3476 0,24.1406 3.44,36.2891 l 12.19,44.9609 c 13.83,-1.7617 13.83,-5.1602 20.7,-22.5 L 6818.1,47.4492 V 108 c -5.24,-1.723 -12.15,-3.402 -19.02,-3.402 -5.24,0 -7,0 -12.11,1.679 l 13.79,53.75 c 1.75,3.442 3.47,8.563 3.47,13.832 h 13.87 z m 3.4,-81.328 c 20.74,8.559 43.24,24.219 50.23,46.719 5.2,20.711 -3.44,34.609 -31.17,34.609 h -22.46 v -8.629 c 22.46,-1.718 36.29,-5.269 29.26,-29.531 C 6844,125.379 6833.65,113.27 6818.1,108 V 47.4492 l 8.59,-17.1797 c 3.52,-8.6797 6.96,-15.5898 17.31,-15.5898 h 20.74 c -6.84,12.1094 -10.35,15.5898 -13.87,24.1406 L 6821.5,101.16"
         style="fill:#215c63;fill-opacity:1;fill-rule:nonzero;stroke:none"
         id="path36" /><path
         d="m 6593.18,180.688 c -41.64,-10.348 -70.98,-44.958 -81.29,-86.52 -12.23,-44.9571 1.72,-83.0078 55.23,-83.0078 8.79,0 17.39,1.8007 26.06,3.5195 V 26.75 c -6.92,-1.7227 -13.91,-3.4805 -20.82,-3.4805 -41.49,0 -41.49,45.0391 -31.14,79.6095 6.96,29.379 25.9,57.148 51.96,67.461 z m 79.57,-79.528 c 12.03,46.719 0,83.051 -55.32,83.051 -8.71,0 -17.34,-1.723 -24.25,-3.523 V 170.34 c 5.11,1.754 12.07,3.48 18.98,3.48 41.6,0 41.6,-46.761 31.13,-79.652 -6.95,-29.3672 -25.86,-58.7891 -50.11,-67.418 V 14.6797 c 39.72,10.3476 69.14,46.6797 79.57,86.4803"
         style="fill:#215c63;fill-opacity:1;fill-rule:nonzero;stroke:none"
         id="path38" /><path
         d="m 6350.91,146.09 c 3.44,12.098 6.95,26.051 3.44,34.598 19.1,0 41.64,1.8 60.51,1.8 32.97,0 43.4,-17.34 36.44,-43.32 -6.95,-29.488 -31.17,-51.8672 -62.3,-51.8672 -13.79,0 -15.55,3.4687 -20.74,5.1484 20.74,3.4805 46.6,6.961 57.07,44.9998 5.19,19.071 1.64,36.41 -22.47,36.41 h -22.5 L 6349.15,50.9297 c -3.39,-12.1094 -5.19,-25.9414 -3.39,-36.25 h -34.61 c 8.59,10.3086 10.39,24.1406 13.75,36.25 l 26.01,95.1603"
         style="fill:#215c63;fill-opacity:1;fill-rule:nonzero;stroke:none"
         id="path40" /><path
         d="m 6184.82,182.488 c -13.79,-1.8 -27.62,-1.8 -39.85,-1.8 1.76,-8.547 0,-22.5 -5.07,-34.598 l -24.3,-95.1212 c -3.44,-12.1485 -6.95,-24.1797 -17.27,-36.2891 h 36.33 c -1.76,10.3476 0,24.1406 3.48,36.2891 l 12.07,44.9609 c 15.58,-1.7617 15.58,-5.1602 22.54,-22.5 l 12.07,-25.9805 V 108 c -6.88,-1.723 -13.79,-3.402 -20.78,-3.402 -3.44,0 -6.84,0 -10.36,1.679 l 13.87,53.75 c 1.76,3.442 1.76,8.563 3.48,13.832 h 13.79 z m 1.72,-81.328 c 22.5,8.559 45,24.219 51.95,46.719 5.16,20.711 -5.23,34.609 -31.21,34.609 h -22.46 v -8.629 c 22.46,-1.718 36.36,-5.269 29.41,-29.531 -5.19,-18.949 -15.58,-31.058 -29.41,-36.328 V 47.4492 l 6.91,-17.1797 c 5.2,-8.6797 6.92,-15.5898 17.31,-15.5898 h 22.5 c -8.68,12.1094 -10.36,15.5898 -15.59,24.1406 l -29.41,62.3397"
         style="fill:#215c63;fill-opacity:1;fill-rule:nonzero;stroke:none"
         id="path42" /><path
         d="m 6004.9,146.09 c 3.39,12.098 5.23,26.051 3.39,34.598 h 34.65 c -8.67,-8.547 -12.07,-22.5 -15.51,-34.598 l -24.29,-95.1603 c -5.12,-12.1094 -6.92,-25.9414 -5.12,-36.25 h -34.65 c 8.67,10.3086 12.07,24.1406 15.51,36.25 l 26.02,95.1603"
         style="fill:#215c63;fill-opacity:1;fill-rule:nonzero;stroke:none"
         id="path44" /><path
         d="M 5814.62,153.078 C 5792.08,114.949 5733.29,38.8594 5717.67,23.2695 l -6.84,-8.5898 h 31.02 c 0,5.1211 1.8,6.9101 1.8,12.1094 3.43,13.832 22.42,38.0117 39.8,60.4687 h 31.17 v 10.4688 h -24.26 l 24.26,36.2894 z m 63.99,-138.3983 -3.52,10.3476 c -12.11,48.4375 -13.87,103.6717 -17.26,155.6607 h -29.42 l -3.44,-6.868 c 0,-5.23 -5.23,-12.109 -10.35,-20.742 v -19.062 l 13.79,19.062 c 0,1.723 1.68,6.949 5.16,6.949 1.72,0 1.72,-3.507 1.72,-6.949 l 5.23,-55.3514 h -25.9 V 87.2578 h 25.9 l 10.47,-72.5781 h 27.62"
         style="fill:#215c63;fill-opacity:1;fill-rule:nonzero;stroke:none"
         id="path46" /><path
         d="m 5458.18,146.09 c 5.11,12.098 6.91,26.051 5.11,34.598 h 34.65 c -8.59,-8.547 -12.11,-22.5 -15.62,-34.598 l -31.1,-119.34 h 19.03 c 15.58,0 27.69,1.7578 45.04,13.8281 l -12.15,-24.1406 c -5.2,-1.7578 -10.35,-1.7578 -15.51,-1.7578 h -72.62 c 12.03,12.0703 22.42,46.6797 24.22,58.7851 l 18.95,72.6252"
         style="fill:#215c63;fill-opacity:1;fill-rule:nonzero;stroke:none"
         id="path48" /><path
         d="M 5274.86,153.078 C 5250.48,114.949 5193.49,38.8594 5177.9,23.2695 l -8.67,-8.5898 h 32.89 c 1.68,5.1211 1.68,6.9101 1.68,12.1094 5.16,13.832 22.58,38.0117 39.77,60.4687 h 31.29 v 10.4688 h -24.38 l 24.38,36.2894 z m 63.98,-138.3983 -3.48,10.3476 c -13.94,48.4375 -13.94,103.6717 -17.34,155.6607 h -31.13 l -1.68,-6.868 c -1.76,-5.23 -5.24,-12.109 -10.35,-20.742 v -19.062 l 12.03,19.062 5.15,6.949 c 3.44,0 3.44,-3.507 3.44,-6.949 l 3.63,-55.3514 h -24.25 V 87.2578 h 25.93 l 8.6,-72.5781 h 29.45"
         style="fill:#215c63;fill-opacity:1;fill-rule:nonzero;stroke:none"
         id="path50" /><path
         d="m 4951.22,14.6797 c 13.83,22.4609 22.58,53.6289 27.74,77.7695 l 13.9,53.6408 c 5.2,12.137 6.84,27.73 1.72,34.598 h 25.9 c 5.08,0 6.92,0 8.56,-5.028 5.19,-7.07 13.86,-34.773 17.3,-45.121 l 32.93,-74.3788 3.44,-5.1914 c 3.51,0 3.51,3.4687 3.51,5.1914 l 24.18,91.7188 c 5.28,17.269 5.28,25.941 1.76,32.809 h 27.74 c -8.72,-12.098 -13.83,-25.887 -17.35,-38.079 L 5094.86,38.8594 c -1.8,-8.5899 -3.44,-17.2696 -6.96,-24.1797 h -17.3 l -58.83,134.8793 -1.68,1.796 c -1.76,0 -1.76,0 -3.44,-3.476 l -17.34,-65.8204 c -5.16,-20.6992 -12.07,-46.6406 -8.63,-67.3789 h -29.46"
         style="fill:#215c63;fill-opacity:1;fill-rule:nonzero;stroke:none"
         id="path52" /><path
         d="m 4818.02,180.688 c -41.52,-10.348 -70.98,-44.958 -81.29,-86.52 -12.15,-44.9571 1.72,-83.0078 57.11,-83.0078 8.63,0 15.43,1.8007 24.18,3.5195 V 26.75 c -6.99,-1.7227 -13.83,-3.4805 -20.78,-3.4805 -41.48,0 -41.48,45.0391 -32.85,79.6095 8.67,29.379 25.97,57.148 53.63,67.461 z m 81.29,-79.528 c 12.19,46.719 -3.44,83.051 -57.03,83.051 -8.6,0 -17.38,-1.723 -24.26,-3.523 V 170.34 c 5.16,1.754 12.15,3.48 19.02,3.48 41.57,0 41.57,-46.761 32.89,-79.652 C 4861.3,64.8008 4844,37.1406 4818.02,26.75 V 14.6797 c 39.84,10.3476 69.18,44.918 81.29,86.4803"
         style="fill:#215c63;fill-opacity:1;fill-rule:nonzero;stroke:none"
         id="path54" /><path
         d="m 4638.14,146.09 c 3.4,12.098 6.87,26.051 3.4,34.598 h 34.57 c -8.6,-8.547 -12.07,-22.5 -15.47,-34.598 l -25.98,-95.1603 c -1.76,-12.1094 -5.19,-25.9414 -1.76,-36.25 h -34.57 c 6.88,10.3086 12.07,24.1406 13.83,36.25 l 25.98,95.1603"
         style="fill:#215c63;fill-opacity:1;fill-rule:nonzero;stroke:none"
         id="path56" /><path
         d="m 4433.92,14.6797 c 6.91,10.3476 12.07,24.1797 13.83,36.2891 l 31.21,117.6212 h -34.69 c -5.16,0 -11.99,-1.719 -18.91,-6.879 l 8.56,18.977 h 129.76 c -5.11,-12.098 -22.42,-12.098 -32.89,-12.098 h -29.37 L 4470.29,50.9688 c -1.8,-12.1094 -7,-25.9415 -1.8,-36.2891 h -34.57"
         style="fill:#215c63;fill-opacity:1;fill-rule:nonzero;stroke:none"
         id="path58" /><path
         d="M 4281.77,153.078 C 4257.51,113.27 4200.36,38.8594 4183.06,23.2695 l -6.99,-8.5898 H 4209 c 0,5.1211 0,6.9101 1.76,12.1094 3.39,13.832 22.46,38.0117 38.04,60.4687 h 32.97 v 10.4688 h -24.26 l 24.26,37.9614 z m 62.27,-138.3983 -1.88,10.3476 c -13.75,48.4375 -15.47,103.6717 -17.26,155.6607 h -31.06 l -1.76,-6.868 c -1.72,-5.23 -5.19,-12.109 -10.31,-20.742 v -17.39 l 12.07,17.39 c 1.72,1.723 3.44,6.949 6.8,6.949 1.79,0 1.79,-3.507 1.79,-6.949 l 3.36,-55.3514 h -24.02 V 87.2578 h 25.82 l 8.71,-72.5781 h 27.74"
         style="fill:#215c63;fill-opacity:1;fill-rule:nonzero;stroke:none"
         id="path60" /><path
         d="m 3959.9,14.6797 c 13.9,22.4609 22.5,53.6289 29.41,77.7695 l 13.91,53.6408 c 3.39,12.137 6.83,27.73 0,34.598 h 27.57 c 3.44,0 6.96,0 8.68,-5.028 3.43,-7.07 12.07,-34.773 17.34,-45.121 l 32.85,-74.3788 3.48,-5.1914 3.44,5.1914 24.25,91.7188 c 3.44,17.269 3.44,25.941 1.72,32.809 h 27.66 c -10.35,-12.098 -15.55,-25.887 -17.31,-38.079 L 4105.25,38.8594 c -1.8,-8.5899 -5.24,-17.2696 -6.96,-24.1797 h -17.38 l -58.83,134.8793 -1.64,1.796 c -1.76,0 -3.47,0 -3.47,-3.476 L 3999.7,82.0586 c -6.87,-20.6992 -13.83,-46.6406 -10.39,-67.3789 h -29.41"
         style="fill:#215c63;fill-opacity:1;fill-rule:nonzero;stroke:none"
         id="path62" /><path
         d="m 3838.8,182.488 c -12.19,-1.8 -25.94,-1.8 -39.88,-1.8 3.51,-8.547 0,-22.5 -3.4,-34.598 L 3771.3,50.9688 c -3.51,-12.1485 -5.12,-24.1797 -17.22,-36.2891 h 36.25 c -3.48,10.3476 0,24.1406 3.43,36.2891 l 12.11,44.9609 c 13.91,-1.7617 15.63,-5.1602 22.54,-22.5 L 3838.8,49.1289 V 108 c -5.23,-1.723 -12.19,-3.402 -19.02,-3.402 -3.44,0 -6.92,0 -12.15,1.679 l 15.59,53.75 c 1.75,3.442 1.75,8.563 3.39,13.832 h 12.19 z m 3.48,-81.328 c 20.78,8.559 44.92,24.219 51.83,46.719 5.28,20.711 -5.15,34.609 -31.05,34.609 h -24.26 v -8.629 c 22.5,-1.718 36.33,-5.269 29.38,-29.531 C 3863.06,125.379 3854.35,113.27 3838.8,108 V 49.1289 l 8.67,-18.8594 c 3.44,-8.6797 6.88,-15.5898 18.95,-15.5898 h 20.78 c -8.63,12.1094 -10.31,15.5898 -15.59,24.1406 l -29.33,62.3397"
         style="fill:#215c63;fill-opacity:1;fill-rule:nonzero;stroke:none"
         id="path64" /><path
         d="m 3605.17,26.75 h 29.45 c 15.63,0 32.81,3.4805 48.48,13.8281 l -10.35,-24.1797 c -7.03,0 -15.59,-1.7187 -24.3,-1.7187 h -76.09 c 8.59,10.3476 12.11,24.1797 15.58,36.2891 l 26.02,95.1212 c 3.32,12.098 6.83,26.004 3.32,34.598 h 90 l -5.12,-20.618 c -6.91,8.52 -19.06,10.27 -34.73,10.27 h -24.17 L 3625.95,108 c 20.7,0 41.48,0 62.27,1.719 -13.71,-13.8323 -41.57,-13.8323 -58.83,-13.8323 h -5.12 L 3605.17,26.75"
         style="fill:#215c63;fill-opacity:1;fill-rule:nonzero;stroke:none"
         id="path66" /><path
         d="m 3413.22,14.6797 c 6.87,10.3476 12.11,24.1797 13.75,36.2891 l 31.21,117.6212 h -32.85 c -7,0 -12.11,-1.719 -20.79,-6.879 l 8.68,18.977 h 129.64 c -5.15,-12.098 -22.42,-12.098 -32.77,-12.098 h -27.73 L 3449.54,50.9688 c -1.79,-12.1094 -6.95,-25.9415 -1.79,-36.2891 h -34.53"
         style="fill:#215c63;fill-opacity:1;fill-rule:nonzero;stroke:none"
         id="path68" /><path
         d="m 3144.93,14.6797 c 13.99,22.4609 22.58,53.6289 29.46,77.7695 l 13.9,53.6408 c 3.44,12.137 6.88,27.73 0,34.598 h 27.66 c 5.16,0 5.16,0 8.59,-5.028 3.52,-7.07 12.19,-34.773 17.47,-45.121 l 32.81,-74.3788 3.44,-5.1914 1.67,5.1914 24.26,91.7188 c 5.2,17.269 5.2,25.941 3.48,32.809 h 25.94 c -8.68,-12.098 -13.87,-25.887 -17.35,-38.079 L 3290.33,38.8594 c -3.56,-8.5899 -3.56,-17.2696 -6.96,-24.1797 h -17.19 l -60.66,134.8793 -1.72,1.796 c 0,0 -1.68,0 -1.68,-3.476 l -17.34,-65.8204 c -5.2,-20.6992 -13.79,-46.6406 -10.39,-67.3789 h -29.46"
         style="fill:#215c63;fill-opacity:1;fill-rule:nonzero;stroke:none"
         id="path70" /><path
         d="m 3046.42,146.09 c 1.68,12.098 5.12,26.051 1.68,34.598 h 34.61 c -6.88,-8.547 -12.11,-22.5 -13.91,-34.598 l -25.82,-95.1603 c -1.76,-12.1094 -7.03,-25.9414 -1.76,-36.25 h -36.4 c 8.71,10.3086 12.22,24.1406 15.62,36.25 l 25.98,95.1603"
         style="fill:#215c63;fill-opacity:1;fill-rule:nonzero;stroke:none"
         id="path72" /><path
         d="m 1778.22,180.688 c -39.73,-10.348 -70.98,-44.958 -79.65,-86.52 -12.07,-46.7188 0,-83.0078 55.39,-83.0078 8.67,0 17.3,0 24.26,1.8007 V 26.75 c -6.96,-3.4805 -12.15,-3.4805 -20.79,-3.4805 -41.52,0 -41.52,43.211 -31.17,77.8905 6.96,29.418 25.98,58.867 51.96,67.43 z m 81.4,-79.528 c 11.99,46.719 -1.79,81.328 -55.43,81.328 -8.63,0 -17.34,0 -25.97,-1.8 V 168.59 c 6.87,3.504 13.86,3.504 20.74,3.504 41.52,0 41.52,-45.035 31.09,-77.926 -6.87,-31.0899 -25.86,-58.7891 -51.83,-67.418 V 12.9609 c 41.48,10.3086 70.86,46.6368 81.4,88.1991"
         style="fill:#215c63;fill-opacity:1;fill-rule:nonzero;stroke:none"
         id="path74" /><path
         d="m 2402.79,180.688 c -39.77,-10.348 -69.18,-44.958 -79.65,-86.52 -12.07,-46.7188 1.68,-83.0078 55.47,-83.0078 8.59,0 17.22,0 24.18,1.8007 V 26.75 c -5.2,-3.4805 -12.07,-3.4805 -19.03,-3.4805 -41.52,0 -41.52,43.211 -32.89,77.8905 6.88,29.418 26.02,58.867 51.92,67.43 z m 81.32,-79.528 c 12.07,46.719 -1.79,81.328 -55.43,81.328 -8.63,0 -17.26,0 -25.89,-1.8 V 168.59 c 6.83,3.504 13.79,3.504 20.7,3.504 41.56,0 41.56,-45.035 31.17,-77.926 -6.91,-31.0899 -24.22,-58.7891 -51.87,-67.418 V 12.9609 c 41.52,10.3086 70.89,46.6368 81.32,88.1991"
         style="fill:#215c63;fill-opacity:1;fill-rule:nonzero;stroke:none"
         id="path76" /><path
         d="m 1921.77,47.4492 c 5.2,-12.0703 12.15,-25.8594 39.84,-25.8594 18.95,0 36.37,10.3477 41.49,31.0196 12.15,43.3203 -62.19,38.1601 -50.16,86.6016 8.67,29.379 36.33,43.277 64.03,43.277 13.9,0 25.97,-1.758 39.8,-1.758 l -6.99,-22.503 c -8.63,12.113 -13.79,13.914 -31.06,13.914 -19.02,0 -34.68,-8.715 -39.88,-27.813 -10.27,-39.73 64.1,-34.609 52.03,-84.7303 -8.67,-31.0508 -45.04,-48.4375 -74.41,-48.4375 -12.15,0 -31.29,3.5195 -41.56,8.6406 l 6.87,27.6484"
         style="fill:#215c63;fill-opacity:1;fill-rule:nonzero;stroke:none"
         id="path78" /><path
         d="m 2264.39,147.84 h -1.76 c -3.36,12.23 -8.67,22.539 -36.25,22.539 -41.68,0 -67.54,-32.93 -76.25,-69.18 -12.15,-39.8396 1.84,-70.9685 45,-70.9685 22.58,0 41.56,8.5898 50.2,17.2578 v -1.7578 c -3.48,-12.1094 -27.62,-36.293 -69.18,-36.293 -50.24,0 -69.18,38.0508 -57.11,84.6914 15.58,51.9611 57.11,88.3201 110.78,88.3201 15.51,0 25.94,-1.761 43.2,-1.761 l -8.63,-32.848"
         style="fill:#215c63;fill-opacity:1;fill-rule:nonzero;stroke:none"
         id="path80" /><path
         d="m 1641.54,179.016 c -8.75,-10.426 -12.19,-24.258 -17.35,-36.407 -6.91,-31.129 -15.58,-65.7027 -20.7,-95.1207 -3.52,-12.1094 -5.16,-24.2188 0,-32.8086 h -39.81 c 8.6,12.1094 12.19,31.0078 17.31,44.918 l 22.5,84.7733 c 0,3.508 1.68,6.984 0,6.984 -3.52,0 -3.52,-1.796 -5.16,-3.476 L 1503.14,11.1602 1487.55,137.449 c 0,6.922 0,13.906 -3.51,13.906 -1.68,0 -3.44,-3.476 -3.44,-8.746 l -22.42,-84.7301 c -5.24,-19.0586 -10.39,-36.25 -6.96,-43.1992 h -31.17 l 3.44,1.7187 c 12.15,13.8711 24.3,55.2696 32.97,82.9727 l 15.47,64.0979 c 3.51,8.625 3.51,10.429 -1.68,15.547 h 31.17 c 5.16,0 6.84,0 6.84,-5.118 l 10.5,-110.7769 c 0,-5.2422 0,-10.5117 1.68,-10.5117 3.4,0 3.4,1.8281 8.67,6.9883 l 70.86,107.3123 c 5.2,6.988 8.64,12.106 15.59,12.106 h 25.98"
         style="fill:#215c63;fill-opacity:1;fill-rule:nonzero;stroke:none"
         id="path82" /><path
         d="m 670.867,983.508 h 48.563 l 57.148,145.312 z"
         style="fill:#215c63;fill-opacity:1;fill-rule:nonzero;stroke:none"
         id="path84" /><path
         d="M 712.469,942.02 H 641.5 L 579.23,855.5 h 126.29 l 6.949,86.52"
         style="fill:#215c63;fill-opacity:1;fill-rule:nonzero;stroke:none"
         id="path86" /><path
         d="M 707.238,815.66 H 549.82 l -64.031,-88.211 h 233.68 l -12.231,88.211"
         style="fill:#215c63;fill-opacity:1;fill-rule:nonzero;stroke:none"
         id="path88" /><path
         d="M 731.5,687.609 H 456.418 L 392.359,599.41 H 767.828 L 731.5,687.609"
         style="fill:#215c63;fill-opacity:1;fill-rule:nonzero;stroke:none"
         id="path90" /><path
         d="m 790.398,559.641 h -427.5 l -62.257,-88.243 h 557.148 l -67.391,88.243"
         style="fill:#215c63;fill-opacity:1;fill-rule:nonzero;stroke:none"
         id="path92" /><path
         d="M 901.027,431.551 H 271.219 l -63.942,-86.485 h 833.873 l -140.123,86.485"
         style="fill:#215c63;fill-opacity:1;fill-rule:nonzero;stroke:none"
         id="path94" /><path
         d="M 631.18,42.3398 C 299.039,42.3398 29,312.219 29,646.121 29,978.27 299.039,1248.23 631.18,1248.23 v -46.75 c -306.321,0 -555.3909,-249.109 -555.3909,-555.359 0,-308 249.0699,-557.0312 555.3909,-557.0312 z m 0,1205.8902 c 333.871,0 603.79,-269.96 603.79,-602.109 0,-333.902 -269.919,-603.7812 -603.79,-603.7812 v 46.75 c 307.929,0 555.32,249.0312 555.32,557.0312 0,306.25 -247.391,555.359 -555.32,555.359 v 46.75"
         style="fill:#215c63;fill-opacity:1;fill-rule:nonzero;stroke:none"
         id="path96" /><path
         d="M 631.18,14.6797 C 283.41,14.6797 1.37891,296.629 1.37891,646.121 1.37891,993.859 283.41,1275.89 631.18,1275.89 v -12.15 C 290.25,1263.74 13.4883,986.98 13.4883,646.121 13.4883,303.59 290.25,26.7891 631.18,26.7891 Z m 0,1261.2103 c 347.66,0 629.69,-282.031 629.69,-629.769 0,-349.492 -282.03,-631.4413 -629.69,-631.4413 v 12.1094 c 342.539,0 619.26,276.8009 619.26,619.3319 0,340.859 -276.721,617.619 -619.26,617.619 v 12.15"
         style="fill:#215c63;fill-opacity:1;fill-rule:nonzero;stroke:none"
         id="path98" /></g></g></svg>
